# xmcd
#
# Track frame offsets:
#	150
#	29683
#	52103
#	79473
#	99396
#	124329
#	150248
#	175599
#	203114
#	225820
#	248389
#	270881
#	293717
#	303259
#
# Disc length: 4365 seconds
#
# Revision: 1
# Processed by: cddbd v1.5.1PL0 Copyright (c) Steve Scherf et al.
# Submitted via: CDex 1.50Beta5
#
DISCID=a8110b0e
DTITLE=Various Artist - OPEN TUNE
DYEAR=1900
DGENRE=
TTITLE0=朴保/Panhandle
TTITLE1=THE BIRDS/光の風
TTITLE2=The Tokyo Warlocks/3つの歌
TTITLE3=島田啓介/We are the Walkers
TTITLE4=GAIA NOVA/大陸
TTITLE5=ウンチャカ/ささえ
TTITLE6=山口晶/風の行方
TTITLE7=あるたま◎あるなす/How can I lose
TTITLE8=吉本有里/カモミールの花のように
TTITLE9=ひのこバンド/ジョニーL
TTITLE10=佐藤しげり/胸につまるもの
TTITLE11=有田武生/WAKE
TTITLE12=極楽温泉/The Maker
TTITLE13=中山ラビ/川にそって
EXTD=
EXTT0=
EXTT1=
EXTT2=
EXTT3=
EXTT4=
EXTT5=
EXTT6=
EXTT7=
EXTT8=
EXTT9=
EXTT10=
EXTT11=
EXTT12=
EXTT13=
PLAYORDER=
